<?xml version="1.0" encoding="utf-8"?>
<!-- Generator: Adobe Illustrator 18.1.1, SVG Export Plug-In . SVG Version: 6.00 Build 0)  -->
<!DOCTYPE svg PUBLIC "-//W3C//DTD SVG 1.1//EN" "http://www.w3.org/Graphics/SVG/1.1/DTD/svg11.dtd">
<svg version="1.1" id="logo" xmlns="http://www.w3.org/2000/svg" xmlns:xlink="http://www.w3.org/1999/xlink" x="0px" y="0px"
	 viewBox="0 0 150 150" enable-background="new 0 0 150 150" xml:space="preserve">
<g id="bottle-cap">
	<path d="M142.4,82.3c-0.1,0-0.1-0.1-0.2-0.1c0.3-2.4,0.5-4.8,0.5-7.2c0.1,0,0.2-0.1,0.2-0.1c2.1-1,4.3-2,5.3-3
		c1.2-1.1,1.8-2.4,1.7-3.8c-0.1-1.4-0.9-2.6-2.2-3.5c-1.2-0.8-3.5-1.5-5.7-2.2c-0.1,0-0.2,0-0.2-0.1c-0.4-2.3-1-4.7-1.6-7
		c0.1-0.1,0.1-0.1,0.2-0.2c1.8-1.6,3.5-3.1,4.2-4.4c0.8-1.3,1-2.8,0.5-4.1c-0.5-1.3-1.6-2.3-3.1-2.7c-1.3-0.4-3.3-0.4-5.5-0.4
		l-0.4,0h-0.1h-0.3c-1.1-2.1-2.3-4.2-3.7-6.2c0.1-0.1,0.1-0.2,0.2-0.3c1.2-2.1,2.4-4,2.7-5.4c0.3-1.5,0.1-2.9-0.8-4
		c-0.9-1.1-2.2-1.7-3.8-1.7c-1.5,0-3.8,0.7-6,1.4c-0.1,0-0.3,0.1-0.4,0.1c-1.7-1.7-3.5-3.3-5.3-4.8c0-0.1,0.1-0.3,0.1-0.4
		c0.5-2.3,1.1-4.5,1-5.9c-0.2-2.6-2-4.3-4.5-4.3c-0.5,0-1.1,0.1-1.6,0.2c-1.4,0.4-3.4,1.7-5.3,3c-0.1,0.1-0.3,0.2-0.4,0.3
		c-2.1-1.1-4.3-2.2-6.5-3.1c0-0.1,0-0.3,0-0.4c-0.2-2.3-0.3-4.6-0.9-6c-0.8-1.9-2.3-3-4.2-3c-1,0-1.9,0.3-2.8,0.9
		C92,4.8,90.5,6.7,89,8.4c-0.1,0.1-0.2,0.3-0.3,0.4c-2.3-0.5-4.8-0.8-7.2-1c-0.1-0.2-0.1-0.3-0.2-0.5c-0.8-2.1-1.7-4.3-2.6-5.4
		c-1-1.2-2.3-1.9-3.7-1.9s-2.7,0.7-3.7,1.9c-0.9,1.1-1.8,3.3-2.6,5.4c-0.1,0.2-0.1,0.3-0.2,0.5c-2.4,0.2-4.8,0.6-7.1,1
		c-0.1-0.1-0.2-0.3-0.3-0.4C59.7,6.6,58.2,4.8,57,4c-0.9-0.6-1.9-0.9-2.8-0.9c-1.9,0-3.4,1.1-4.2,3c-0.5,1.3-0.7,3.7-0.9,6
		c0,0.2,0,0.3,0,0.5c-2.2,0.9-4.4,1.9-6.5,3c-0.2-0.1-0.3-0.2-0.5-0.3c-1.9-1.3-3.9-2.6-5.3-3c-0.5-0.2-1.1-0.2-1.6-0.2
		c-2.5,0-4.3,1.7-4.5,4.3c-0.1,1.4,0.4,3.6,0.9,5.9c0,0.2,0.1,0.3,0.1,0.5c-1.8,1.5-3.6,3.1-5.2,4.7c-0.2-0.1-0.4-0.1-0.6-0.2
		c-2.2-0.7-4.5-1.4-6-1.4c-1.6,0-3,0.6-3.8,1.7c-0.8,1.1-1.1,2.5-0.8,4c0.3,1.4,1.5,3.3,2.7,5.4c0.1,0.1,0.2,0.3,0.2,0.4
		c-1.3,1.9-2.5,4-3.6,6.1l-0.4,0h-0.1l-0.7,0c-2.6,0-4.3,0.1-5.4,0.4c-1.5,0.5-2.6,1.4-3.1,2.7c-0.5,1.3-0.3,2.7,0.5,4.1
		c0.7,1.2,2.4,2.8,4.2,4.4c0.1,0.1,0.2,0.2,0.3,0.3c-0.7,2.2-1.2,4.5-1.6,6.8c-0.2,0-0.3,0.1-0.5,0.1c-2.2,0.7-4.5,1.4-5.7,2.2
		C0.9,65.4,0.1,66.6,0,68c-0.1,1.4,0.5,2.7,1.6,3.8c1.1,1,3.2,2,5.3,3c0.1,0.1,0.3,0.1,0.4,0.2c0,2.3,0.2,4.7,0.5,7
		c-0.1,0.1-0.2,0.2-0.4,0.2c-1.9,1.3-3.9,2.6-4.8,3.7c-1,1.2-1.4,2.6-1.1,4C2,91.2,2.9,92.3,4.4,93c1.3,0.6,3.7,1,6,1.3
		c0.1,0,0.3,0,0.4,0.1c0.7,2.2,1.6,4.4,2.6,6.6c-0.1,0.1-0.1,0.2-0.2,0.3c-1.5,1.9-3,3.6-3.5,4.9c-0.6,1.4-0.5,2.9,0.2,4.1
		c0.7,1.2,1.9,2,3.5,2.2c0.3,0,0.6,0.1,1,0.1c1.4,0,3.3-0.3,5.1-0.5c0.1,0,0.2,0,0.4-0.1c1.4,2,2.9,3.9,4.6,5.6
		c0,0.1-0.1,0.2-0.1,0.3c-0.9,2.2-1.7,4.3-1.8,5.7c-0.1,1.4,0.3,2.7,1.2,3.6c0.8,0.9,2,1.4,3.4,1.4c0.3,0,0.6,0,0.9-0.1
		c1.4-0.2,3.6-1.2,5.7-2.2c0.1,0,0.2-0.1,0.3-0.1c2,1.5,4,2.9,6.1,4.1c0,0.1,0,0.2,0,0.2c-0.2,2.3-0.4,4.6,0,6
		c0.5,2.2,2.2,3.7,4.4,3.7c0.8,0,1.5-0.2,2.3-0.5c1.3-0.6,3.1-2.2,4.8-3.8c0.1-0.1,0.1-0.1,0.2-0.2c2.3,0.9,4.7,1.6,7.1,2.2
		c0,0.1,0,0.1,0.1,0.2c0.5,2.2,1,4.5,1.8,5.7c0.9,1.6,2.4,2.4,4,2.4c1.2,0,2.3-0.5,3.3-1.4c1.1-1,2.3-3,3.4-5c0-0.1,0.1-0.1,0.1-0.2
		c1.4,0.1,2.7,0.1,3.9,0.1c1.1,0,2.3,0,3.6-0.1c0,0.1,0.1,0.1,0.1,0.2c1.2,2,2.4,4,3.4,5c1,0.9,2.1,1.4,3.3,1.4c1.6,0,3-0.9,4-2.4
		c0.7-1.2,1.3-3.5,1.8-5.8c0,0,0-0.1,0-0.1c2.4-0.6,4.9-1.3,7.2-2.2c0,0,0.1,0.1,0.1,0.1c1.7,1.5,3.5,3.1,4.8,3.8
		c0.8,0.4,1.5,0.5,2.3,0.5c2.1,0,3.8-1.4,4.4-3.7c0.3-1.4,0.2-3.6,0-6c0,0,0-0.1,0-0.1c2.1-1.3,4.2-2.7,6.2-4.1
		c0.1,0,0.1,0.1,0.2,0.1c2.1,1,4.3,2,5.7,2.2c0.3,0,0.6,0.1,0.9,0.1c1.3,0,2.5-0.5,3.4-1.4c0.9-0.9,1.3-2.2,1.2-3.6
		c-0.1-1.4-1-3.5-1.8-5.7c0,0,0-0.1,0-0.1c1.7-1.8,3.2-3.7,4.7-5.7c0.1,0,0.1,0,0.2,0c1.8,0.3,3.7,0.5,5.1,0.5c0.4,0,0.7,0,1-0.1
		c1.6-0.2,2.8-1,3.5-2.2c0.7-1.2,0.7-2.6,0.2-4.1c-0.5-1.3-2-3.1-3.5-5c0,0-0.1-0.1-0.1-0.1c1-2.2,2-4.5,2.7-6.8c0.1,0,0.1,0,0.2,0
		c2.3-0.3,4.7-0.7,6-1.3c1.4-0.7,2.4-1.8,2.7-3.1c0.3-1.3-0.1-2.7-1.1-4C146.3,84.9,144.3,83.6,142.4,82.3z"/>
	<path fill="#E5A700" d="M147.2,70.7c1.6-1.5,1.5-3.5-0.4-4.7c-1.2-0.8-4.2-1.6-6.5-2.3c-0.5-3-1.2-5.9-2.1-8.8
		c1.8-1.6,4.1-3.6,4.9-4.9c1.1-1.9,0.4-3.7-1.8-4.4c-1.4-0.4-4.5-0.3-7-0.3c-1.4-2.7-2.9-5.3-4.6-7.8c1.2-2.1,2.9-4.7,3.2-6.1
		c0.5-2.1-0.8-3.7-3-3.7c-1.5,0-4.5,1-6.8,1.7c-2.1-2.2-4.3-4.2-6.7-6.1c0.5-2.3,1.3-5.4,1.2-6.8c-0.2-2.2-1.9-3.3-4-2.7
		c-1.4,0.4-4,2.3-6.1,3.6c-2.6-1.5-5.3-2.7-8.2-3.8c-0.2-2.4-0.3-5.5-0.9-6.9c-0.8-2-2.8-2.6-4.6-1.4c-1.2,0.8-3.2,3.4-4.7,5.2
		c-2.9-0.6-5.9-1.1-8.9-1.3c-0.9-2.2-2-5.2-3-6.4c-1.4-1.7-3.4-1.7-4.8,0c-0.9,1.2-2,4.2-3,6.4c-3,0.2-6,0.7-8.9,1.3
		c-1.6-1.9-3.5-4.4-4.8-5.3c-1.8-1.2-3.8-0.6-4.6,1.4c-0.6,1.4-0.7,4.6-0.9,7c-2.8,1.1-5.5,2.4-8.1,3.8c-2.1-1.3-4.7-3.2-6.1-3.7
		c-2.1-0.6-3.8,0.5-4,2.7c-0.1,1.5,0.7,4.6,1.3,6.9c-2.3,1.8-4.5,3.8-6.6,6c-2.4-0.7-5.5-1.7-7-1.7c-2.2,0-3.5,1.6-3,3.7
		c0.3,1.4,2.1,4.1,3.3,6.2c-1.7,2.4-3.2,5-4.5,7.6c-2.5,0-5.7-0.1-7.2,0.3c-2.1,0.6-2.9,2.5-1.8,4.4c0.7,1.3,3.2,3.3,5,5
		c-0.9,2.8-1.6,5.7-2,8.6c-2.3,0.7-5.5,1.6-6.7,2.4c-1.8,1.2-2,3.2-0.4,4.7c1.1,1,4,2.3,6.2,3.3c0,3,0.2,6,0.6,8.8
		c-2,1.4-4.7,3-5.7,4.2c-1.4,1.7-0.9,3.6,1.1,4.6c1.3,0.6,4.5,1,6.9,1.4c0.9,2.9,2,5.6,3.3,8.3c-1.5,1.9-3.6,4.2-4.1,5.6
		c-0.8,2,0.2,3.8,2.4,4.1c1.5,0.2,4.5-0.3,7-0.7c1.7,2.5,3.6,4.8,5.7,7c-0.9,2.2-2.1,5-2.2,6.5c-0.2,2.2,1.3,3.5,3.5,3.2
		c1.4-0.2,4.2-1.6,6.4-2.6c2.4,1.9,4.9,3.6,7.6,5.1c-0.2,2.4-0.5,5.4-0.2,6.8c0.5,2.1,2.3,3,4.3,2c1.3-0.6,3.5-2.7,5.3-4.3
		c2.9,1.1,5.8,2,8.9,2.7c0.6,2.3,1.1,5.3,1.9,6.5c1.1,1.9,3.1,2.2,4.8,0.7c1.1-1,2.5-3.6,3.7-5.6c1.6,0.1,3.2,0.2,4.8,0.2
		c1.5,0,3-0.1,4.5-0.2c1.2,2,2.7,4.7,3.7,5.6c1.6,1.5,3.6,1.2,4.8-0.7c0.7-1.2,1.3-4.1,1.9-6.4c3.1-0.7,6-1.6,8.9-2.7
		c1.8,1.6,3.9,3.7,5.2,4.3c2,0.9,3.8,0.1,4.3-2c0.3-1.4,0-4.3-0.2-6.7c2.7-1.5,5.3-3.3,7.7-5.1c2.2,1,4.9,2.4,6.3,2.6
		c2.2,0.3,3.7-1,3.5-3.2c-0.1-1.4-1.3-4.1-2.2-6.3c2.1-2.2,4.1-4.6,5.8-7.1c2.4,0.3,5.4,0.9,6.8,0.7c2.2-0.3,3.2-2,2.4-4.1
		c-0.5-1.3-2.5-3.6-4-5.4c1.3-2.7,2.5-5.6,3.4-8.5c2.4-0.4,5.4-0.7,6.7-1.3c2-0.9,2.5-2.9,1.1-4.6c-0.9-1.1-3.5-2.7-5.5-4.1
		c0.4-3,0.7-6,0.7-9C143.4,72.9,146.2,71.7,147.2,70.7z"/>
	<g>
		<path fill="#C59101" d="M132.4,97.8c0.9-2,3.6-4.5,5.6-4.8c1.5-0.2,3.2-0.4,4.5-0.7c1-0.6,0.5-2.4-0.9-2.2
			c-1.8,0.2-4.5,0.4-6.1,1.7c-1.4,1.2-4.6,4.1-5.2,5.3C129.7,98.5,131.7,99.2,132.4,97.8z"/>
		<path fill="#FFB700" d="M133.5,94c-0.7,2.1-0.2,5.7,1,7.3c1,1.2,2.1,2.5,2.9,3.5c0.4,1.2-1.2,2.1-2.1,1.1
			c-1.2-1.4-3.1-3.3-3.4-5.3c-0.3-1.9-0.7-6.2-0.4-7.5C132,91.7,134,92.5,133.5,94z"/>
		<path fill="#C59101" d="M91.2,132.6c2.1-0.6,5.7-0.1,7.3,1.2c1.2,1,2.4,2.2,3.5,3c1.1,0.4,2.2-1.1,1.1-2.1
			c-1.4-1.3-3.2-3.2-5.2-3.5c-1.9-0.3-6.2-0.8-7.5-0.5C88.9,131,89.7,133,91.2,132.6z"/>
		<path fill="#C59101" d="M108.6,125.4c1.9-1.2,5.5-1.7,7.3-0.9c1.4,0.7,2.9,1.4,4.2,1.9c1.2,0,1.8-1.7,0.5-2.3
			c-1.7-0.8-4-2.2-6-1.9c-1.9,0.2-6.2,0.9-7.3,1.6C106,124.5,107.3,126.2,108.6,125.4z"/>
		<path fill="#C59101" d="M122.5,113.2c1.5-1.7,4.8-3.2,6.8-2.9c1.5,0.3,3.2,0.5,4.5,0.6c1.2-0.3,1.2-2.1-0.2-2.4
			c-1.8-0.3-4.4-1-6.3-0.2c-1.7,0.7-5.7,2.6-6.6,3.6C119.8,113.1,121.5,114.4,122.5,113.2z"/>
		<path fill="#FFB700" d="M124.8,110c-1.3,1.8-2,5.4-1.3,7.3c0.6,1.4,1.3,3,1.7,4.3c0,1.2-1.8,1.7-2.3,0.4c-0.8-1.7-2-4.1-1.6-6.1
			c0.3-1.9,1.2-6.1,1.9-7.2C124,107.3,125.7,108.7,124.8,110z"/>
		<path fill="#C59101" d="M135.7,62.2c-0.4-2.2,0.9-5.8,2.4-7.1c1.2-1,2.5-2.1,3.4-3.1c0.5-1.1-0.9-2.3-1.9-1.4
			c-1.4,1.2-3.5,2.8-4.1,4.7c-0.5,1.8-1.6,6-1.4,7.3C134.2,64.2,136,63.7,135.7,62.2z"/>
		<path fill="#C59101" d="M136.3,80.4c0.3-2.2,2.6-5.4,4.4-6.2c1.4-0.6,3-1.3,4.1-2c0.8-0.9-0.2-2.4-1.5-1.9
			c-1.7,0.7-4.2,1.6-5.3,3.3c-1,1.6-3.3,5.3-3.5,6.6C134.3,81.8,136.1,82,136.3,80.4z"/>
		<path fill="#C59101" d="M127.2,41c-1.1-1.9-1.5-5.5-0.7-7.4c0.7-1.4,1.5-2.9,2-4.1c0.1-1.2-1.6-1.8-2.3-0.6
			c-0.9,1.6-2.3,3.9-2.1,5.9c0.2,1.9,0.7,6.2,1.3,7.4C126.2,43.6,128,42.3,127.2,41z"/>
		<path fill="#C59101" d="M76.8,134.7c-2.2,0.1-5.5,1.7-6.6,3.4c-0.8,1.3-1.6,2.8-2.4,3.9c-1,0.7-2.4-0.4-1.7-1.6
			c0.9-1.6,2.1-4,3.9-5c1.7-0.9,5.6-2.7,6.9-2.8C78.5,132.5,78.4,134.7,76.8,134.7z"/>
		<path fill="#C59101" d="M58.2,132.5c-2.2-0.6-5.7,0-7.3,1.4c-1.1,1.1-2.4,2.3-3.4,3.1c-1.1,0.4-2.2-1.1-1.2-2.1
			c1.3-1.3,3.1-3.3,5.1-3.7c1.8-0.4,6.1-1,7.4-0.7C60.4,130.9,59.7,132.9,58.2,132.5z"/>
		<path fill="#C59101" d="M41.3,124.7c-1.9-1.1-5.6-1.5-7.4-0.6c-1.4,0.7-2.9,1.6-4.1,2.1c-1.2,0.1-1.8-1.6-0.6-2.3
			c1.6-0.9,3.9-2.3,5.9-2.2c1.9,0.1,6.2,0.6,7.4,1.3C43.9,123.7,42.6,125.5,41.3,124.7z"/>
		<path fill="#C59101" d="M27.3,113.1c-1.5-1.7-4.8-3.2-6.8-2.9c-1.5,0.2-3.2,0.5-4.5,0.6c-1.2-0.3-1.2-2.1,0.2-2.4
			c1.8-0.4,4.4-1,6.3-0.2c1.7,0.7,5.7,2.6,6.6,3.6C30.1,112.9,28.3,114.2,27.3,113.1z"/>
		<path fill="#C59101" d="M17.5,97.7c-0.9-2-3.6-4.5-5.6-4.8c-1.5-0.2-3.2-0.4-4.5-0.7c-1-0.6-0.5-2.4,0.9-2.2
			c1.8,0.2,4.5,0.4,6,1.7c1.4,1.2,4.6,4.2,5.2,5.4C20.1,98.4,18.1,99.1,17.5,97.7z"/>
		<path fill="#C59101" d="M95.1,131.6c-2.1,0.7-4.7,3.3-5.2,5.2c-0.3,1.5-0.7,3.2-1.1,4.5c-0.7,1-2.4,0.4-2.2-1
			c0.3-1.8,0.7-4.5,2.1-5.9c1.3-1.3,4.5-4.3,5.7-4.8C95.9,129,96.5,131.1,95.1,131.6z"/>
		<path fill="#C59101" d="M19.7,44.4c1.1-2,1.3-5.6,0.3-7.4c-0.8-1.3-1.7-2.8-2.2-4c-0.1-1.2,1.5-1.9,2.3-0.7c1,1.6,2.5,3.8,2.4,5.8
			c-0.1,1.9-0.4,6.2-1,7.4C20.8,46.9,18.9,45.8,19.7,44.4z"/>
		<path fill="#C59101" d="M31.1,29.7c1.6-1.6,2.8-5,2.4-7c-0.4-1.5-0.8-3.2-1-4.5c0.2-1.2,2-1.4,2.4,0c0.5,1.8,1.3,4.3,0.6,6.3
			c-0.6,1.8-2.2,5.8-3.1,6.8C31.4,32.4,30,30.8,31.1,29.7z"/>
		<path fill="#C59101" d="M46,18.9c2-1,4.3-3.8,4.5-5.8c0.1-1.6,0.3-3.3,0.5-4.6c0.6-1.1,2.3-0.7,2.3,0.8c-0.1,1.9-0.2,4.5-1.4,6.1
			c-1.1,1.5-3.9,4.8-5.1,5.5C45.5,21.6,44.7,19.6,46,18.9z"/>
		<path fill="#C59101" d="M68.1,12.9c2.2-0.3,5.3-2.2,6.2-4c0.7-1.4,1.4-3,2-4.1C77.2,4,78.7,5,78.2,6.3c-0.7,1.7-1.7,4.2-3.4,5.3
			c-1.6,1-5.3,3.2-6.6,3.4C66.6,15.3,66.5,13.1,68.1,12.9z"/>
		<path fill="#C59101" d="M86.9,13.5c2.2,0.4,5.7-0.5,7.1-2c1-1.2,2.2-2.4,3.1-3.3c1.1-0.5,2.3,0.9,1.4,2c-1.2,1.4-2.8,3.5-4.8,4.1
			c-1.8,0.5-6,1.5-7.4,1.3C84.8,15.4,85.3,13.3,86.9,13.5z"/>
		<path fill="#C59101" d="M105,20.9c2.1,0.8,5.7,0.6,7.4-0.6c1.2-0.9,2.6-2,3.7-2.7c1.2-0.3,2.1,1.3,1,2.2c-1.4,1.2-3.4,2.9-5.5,3.1
			c-1.9,0.2-6.2,0.4-7.5-0.1C102.6,22.3,103.6,20.4,105,20.9z"/>
		<path fill="#FFB700" d="M116,27.7c1.7,1.4,5.2,2.4,7.2,1.8c1.5-0.5,3.1-1,4.4-1.3c1.2,0.1,1.5,1.9,0.2,2.4
			c-1.8,0.6-4.2,1.6-6.2,1.1c-1.8-0.5-6-1.7-7-2.5C113.3,28.2,114.8,26.7,116,27.7z"/>
		<path fill="#FFB700" d="M127.9,41.5c1.2,1.9,4.3,3.9,6.3,3.9c1.6,0,3.3-0.1,4.6,0c1.1,0.5,0.9,2.3-0.5,2.3
			c-1.9,0.1-4.5,0.3-6.2-0.8c-1.6-1-5.2-3.4-6-4.5C125.2,41.2,127.1,40.1,127.9,41.5z"/>
		<path fill="#FFB700" d="M135.3,58.2c0.6,2.2,2.9,4.9,4.9,5.6c1.5,0.4,3.1,0.9,4.4,1.4c0.9,0.8,0.2,2.4-1.2,2.1
			c-1.8-0.5-4.4-1-5.7-2.5c-1.2-1.4-4-4.8-4.4-6C132.8,57.1,134.9,56.7,135.3,58.2z"/>
		<path fill="#C59101" d="M14.1,62.2c0.4-2.2-0.5-5.7-2-7.1c-1.2-1-2.5-2.2-3.4-3.1c-0.5-1.1,0.9-2.3,1.9-1.4
			c1.4,1.2,3.5,2.8,4.1,4.8c0.5,1.8,1.6,6,1.4,7.3C16,64.2,13.9,63.7,14.1,62.2z"/>
		<path fill="#C59101" d="M12.5,79.8c-0.3-2.2-2.2-5.3-4-6.2c-1.4-0.7-3-1.4-4.1-2c-0.8-0.9,0.2-2.4,1.5-1.9
			c1.7,0.7,4.2,1.7,5.3,3.4c1,1.6,3.2,5.3,3.4,6.6C14.9,81.2,12.7,81.3,12.5,79.8z"/>
		<path fill="#FFB700" d="M38.1,123.5c1.8,1.3,3.6,4.5,3.4,6.5c-0.1,1.6-0.3,3.3-0.3,4.6c0.4,1.1,2.2,1,2.4-0.4
			c0.2-1.8,0.6-4.5-0.3-6.3c-0.9-1.7-3-5.4-4.1-6.3C38,120.7,36.8,122.6,38.1,123.5z"/>
		<path fill="#FFB700" d="M73,134.8c2.2,0.1,5.5,1.7,6.6,3.4c0.8,1.3,1.6,2.8,2.4,3.9c1,0.7,2.4-0.4,1.7-1.6c-0.9-1.6-2-4-3.8-5
			c-1.7-0.9-5.6-2.7-6.9-2.8C71.4,132.6,71.5,134.7,73,134.8z"/>
		<path fill="#FFB700" d="M86.2,13c-2.2-0.4-5.2-2.4-6-4.3c-0.6-1.4-1.2-3-1.8-4.2c-0.9-0.9-2.4,0.1-1.9,1.4
			c0.6,1.7,1.5,4.3,3.1,5.5c1.5,1.1,5.2,3.5,6.5,3.8C87.5,15.4,87.7,13.3,86.2,13z"/>
		<path fill="#FFB700" d="M103.9,19.2c-2-1-4.2-3.9-4.4-5.9c-0.1-1.6-0.2-3.3-0.4-4.6c-0.5-1.1-2.3-0.7-2.3,0.7
			c0.1,1.9,0.1,4.5,1.3,6.2c1.1,1.5,3.8,4.9,5,5.6C104.4,21.9,105.3,19.9,103.9,19.2z"/>
		<path fill="#FFB700" d="M67.5,12.6c-2.2,0.3-5.7-0.9-7-2.4c-1-1.2-2-2.6-2.9-3.5c-1.1-0.6-2.3,0.7-1.5,1.9
			c1.1,1.5,2.6,3.7,4.5,4.4c1.8,0.6,5.9,1.9,7.3,1.8C69.5,14.6,69.1,12.5,67.5,12.6z"/>
		<path fill="#FFB700" d="M49.8,17.6c-2,0.9-5.7,0.9-7.4-0.2c-1.3-0.9-2.7-1.9-3.8-2.5c-1.2-0.2-2,1.4-0.9,2.2
			c1.5,1.1,3.6,2.8,5.6,2.8c1.9,0.1,6.2,0,7.5-0.4C52.2,18.9,51.2,17,49.8,17.6z"/>
		<path fill="#FFB700" d="M34,27.4c-1.7,1.5-5.2,2.5-7.1,1.9c-1.5-0.5-3.1-1-4.4-1.3c-1.2,0.1-1.5,1.9-0.2,2.4
			c1.8,0.6,4.2,1.6,6.2,1.1c1.8-0.5,6-1.8,7-2.6C36.7,27.9,35.1,26.4,34,27.4z"/>
		<path fill="#FFB700" d="M22.4,41.4c-1.2,1.9-4.5,3.7-6.5,3.8c-1.6,0-3.3-0.1-4.6,0c-1.1,0.5-0.9,2.3,0.5,2.3
			c1.9,0.1,4.5,0.3,6.2-0.7c1.6-1,5.2-3.4,6-4.5C24.9,41,23.2,40.1,22.4,41.4z"/>
		<path fill="#FFB700" d="M14.5,58c-0.6,2.2-3.1,4.9-5.1,5.5C8,64,6.3,64.5,5.1,65c-0.9,0.8-0.2,2.4,1.2,2.1
			c1.8-0.5,4.4-1.1,5.7-2.6c1.2-1.4,4-4.8,4.4-6.1C16.8,56.9,14.9,56.5,14.5,58z"/>
		<path fill="#FFB700" d="M119,29.9c-1.6-1.6-2.8-5-2.4-7c0.4-1.5,0.8-3.2,1-4.5c-0.2-1.2-2-1.4-2.4,0c-0.5,1.8-1.3,4.3-0.7,6.2
			c0.6,1.8,2.1,5.8,3,6.8C118.7,32.7,120.1,31,119,29.9z"/>
		<path fill="#FFB700" d="M16.5,93.8c0.7,2.1,0,5.8-1.3,7.4c-1,1.2-2.1,2.5-2.9,3.6c-0.4,1.2,1.2,2.1,2.1,1.1
			c1.2-1.4,3.1-3.3,3.4-5.3c0.3-1.9,0.7-6.2,0.3-7.5C17.8,91.6,16.1,92.4,16.5,93.8z"/>
		<path fill="#FFB700" d="M13,75.9c0.1,2.2-1.7,5.7-3.3,6.9c-1.3,0.9-2.7,1.8-3.8,2.6c-0.7,1,0.5,2.4,1.7,1.6c1.6-1,3.9-2.3,4.7-4.1
			c0.8-1.7,2.4-5.7,2.4-7.1C14.8,74.2,12.9,74.3,13,75.9z"/>
		<path fill="#FFB700" d="M24.9,110c1.3,1.8,2,5.4,1.3,7.3c-0.6,1.4-1.3,3-1.7,4.3c0,1.2,1.8,1.7,2.4,0.4c0.8-1.7,2-4.1,1.6-6.1
			c-0.3-1.9-1.2-6.1-2-7.2C25.7,107.3,24,108.7,24.9,110z"/>
		<path fill="#FFB700" d="M54.9,131.6c2.1,0.8,4.7,3.4,5.1,5.3c0.3,1.5,0.6,3.2,1,4.5c0.7,1,2.4,0.4,2.2-1c-0.3-1.8-0.6-4.5-2-5.9
			c-1.3-1.4-4.4-4.4-5.6-4.9C54.1,129,53.5,131.1,54.9,131.6z"/>
		<path fill="#FFB700" d="M111.7,123.8c-1.8,1.3-3.5,4.5-3.4,6.6c0.1,1.6,0.3,3.3,0.3,4.6c-0.4,1.2-2.2,1.1-2.4-0.3
			c-0.2-1.8-0.6-4.5,0.3-6.3c0.9-1.7,3-5.4,4-6.3C111.8,121,112.9,122.8,111.7,123.8z"/>
		<path fill="#FFB700" d="M137.3,76.2c0,2.2,1.4,5.6,3.1,6.7c1.3,0.8,2.8,1.8,3.8,2.6c0.7,1-0.5,2.4-1.7,1.6c-1.6-1-3.9-2.3-4.8-4.1
			c-0.8-1.7-2.4-5.7-2.5-7.1C135.1,74.5,137.3,74.7,137.3,76.2z"/>
	</g>
	<circle fill="#FFB700" cx="75" cy="73.2" r="62.4"/>
	<path fill="#FCEB9E" d="M47.3,23.5c-0.3,0.2-2.4,3.3-2.7,3.5c25.8-15.5,59.4-7.5,75.4,18.1c16.1,25.6,8.6,59.3-16.5,75.8
		c0.3-0.2,0.6-0.4,1-0.6c30.8-14.5,36.5-52.1,20.2-78.1C108.5,16.3,73.3,7.3,47.3,23.5z"/>
</g>
<g id="type">
	<g id="established">
		<g>
			<path stroke="#231F20" stroke-width="0.3365" stroke-miterlimit="10" d="M57.5,115.9h-5.4V115l0.4,0c0.2,0,0.3-0.1,0.3-0.3v-4.9
				l-0.6,0v-0.9h5.2v1.8l-1.1,0.1v-0.4c0-0.1,0-0.2-0.1-0.3c0,0-0.1-0.1-0.3-0.1h-1.7v1.8h2.6v1.1h-2.6v2H56c0.1,0,0.2,0,0.3-0.1
				c0-0.1,0.1-0.1,0.1-0.3v-0.5l1.1,0.1V115.9z"/>
			<path stroke="#231F20" stroke-width="0.3365" stroke-miterlimit="10" d="M61.1,114.9c0.9,0,1.4-0.3,1.4-1c0-0.4-0.2-0.6-0.6-0.8
				c-0.2-0.1-0.5-0.2-0.8-0.3c-0.3-0.1-0.6-0.2-0.8-0.3c-0.2-0.1-0.4-0.2-0.7-0.4c-0.4-0.3-0.7-0.8-0.7-1.4c0-0.6,0.2-1.2,0.7-1.5
				c0.5-0.4,1.1-0.6,1.9-0.6s1.5,0.1,2.1,0.4v1.6l-1.1,0.1v-0.6c0-0.1,0-0.2,0-0.2c-0.1-0.1-0.3-0.2-0.8-0.2c-0.4,0-0.8,0.1-1,0.2
				c-0.2,0.1-0.3,0.4-0.3,0.7c0,0.2,0.1,0.4,0.3,0.6c0.1,0.1,0.3,0.2,0.5,0.3c0.2,0.1,0.5,0.2,0.8,0.2c0.3,0.1,0.5,0.2,0.7,0.3
				c0.2,0.1,0.4,0.2,0.6,0.4c0.5,0.3,0.7,0.8,0.7,1.5s-0.3,1.2-0.8,1.6c-0.5,0.4-1.2,0.6-2,0.6s-1.6-0.1-2.2-0.4v-1.7l1.1-0.1v0.6
				c0,0.1,0,0.2,0,0.2c0,0,0.1,0.1,0.3,0.1C60.5,114.9,60.8,114.9,61.1,114.9z"/>
			<path stroke="#231F20" stroke-width="0.3365" stroke-miterlimit="10" d="M66.7,114.7v-4.8h-0.9c-0.2,0-0.3,0.1-0.3,0.3v0.5
				l-1.1-0.1v-1.8h5.9v1.8l-1.1,0.1v-0.5c0-0.1,0-0.2-0.1-0.3c0,0-0.1-0.1-0.3-0.1h-0.8v5.1l0.9,0v0.9h-3.2V115l0.6,0
				C66.6,115,66.7,114.9,66.7,114.7z"/>
			<path stroke="#231F20" stroke-width="0.3365" stroke-miterlimit="10" d="M75,114.6v-4.2l-1.3,0.6l-0.5-0.8l2.1-1.2h1.1v5.9
				l1.2,0.1v0.9h-3.9V115l1.1-0.1c0.1,0,0.2,0,0.2-0.1C75,114.8,75,114.7,75,114.6z"/>
			<path stroke="#231F20" stroke-width="0.3365" stroke-miterlimit="10" d="M78.9,116l-0.3-1c0.9-0.1,1.5-0.3,2-0.6s0.7-0.8,0.8-1.4
				c-0.4,0.3-1,0.4-1.6,0.4c-0.6,0-1.1-0.2-1.4-0.6s-0.5-0.9-0.5-1.6s0.2-1.2,0.6-1.7s1.1-0.7,1.9-0.7s1.4,0.3,1.8,0.8
				c0.4,0.6,0.6,1.3,0.6,2.2C82.8,114.4,81.5,115.8,78.9,116z M79.5,110.3c-0.2,0.2-0.3,0.6-0.3,1s0.1,0.7,0.3,0.9
				c0.2,0.2,0.4,0.3,0.6,0.3s0.5,0,0.8-0.1c0.3-0.1,0.4-0.2,0.6-0.3c0-0.1,0-0.1,0-0.2c0-1.3-0.4-2-1.1-2
				C80,109.9,79.7,110,79.5,110.3z"/>
			<path stroke="#231F20" stroke-width="0.3365" stroke-miterlimit="10" d="M84.8,116l-0.3-1c0.9-0.1,1.5-0.3,2-0.6s0.7-0.8,0.8-1.4
				c-0.4,0.3-1,0.4-1.6,0.4c-0.6,0-1.1-0.2-1.4-0.6s-0.5-0.9-0.5-1.6s0.2-1.2,0.6-1.7s1.1-0.7,1.9-0.7s1.4,0.3,1.8,0.8
				c0.4,0.6,0.6,1.3,0.6,2.2C88.7,114.4,87.4,115.8,84.8,116z M85.4,110.3c-0.2,0.2-0.3,0.6-0.3,1s0.1,0.7,0.3,0.9
				c0.2,0.2,0.4,0.3,0.6,0.3s0.5,0,0.8-0.1c0.3-0.1,0.4-0.2,0.6-0.3c0-0.1,0-0.1,0-0.2c0-1.3-0.4-2-1.1-2
				C85.9,109.9,85.6,110,85.4,110.3z"/>
			<path stroke="#231F20" stroke-width="0.3365" stroke-miterlimit="10" d="M89.3,109.1h4.9v0.9l-2.6,5.9h-1.4l2.6-5.8h-2.1
				c-0.2,0-0.2,0.1-0.2,0.3v0.4l-1.1-0.1V109.1z"/>
		</g>
		<g id="stars">
			<path id="star_1_" d="M47.6,111.2l-1.8,1.3l0.7,2.2l-1.8-1.3l-1.8,1.3l0.7-2.2l-1.8-1.3h2.3l0.7-2.1l0.7,2.1H47.6z"/>
			<path id="star" d="M104.5,111.2l-1.8,1.3l0.7,2.2l-1.8-1.3l-1.8,1.3l0.7-2.2l-1.8-1.3h2.3l0.7-2.1l0.7,2.1H104.5z"/>
		</g>
	</g>
	<g>
		<g>
			<path fill="#FCEB9E" d="M44.7,74.4c-0.5,4.3-3.6,6.4-9.1,6.4c-2.9,0-5.5-0.6-7.8-1.8v-7.6l4.7-0.3v3.4c0,0.4,0.1,0.8,0.2,1
				c0.1,0.2,0.4,0.4,1,0.6c0.5,0.2,1.3,0.3,2.4,0.3c1.1,0,1.9-0.3,2.4-0.9c0.5-0.6,0.7-1.6,0.7-3V55.1L35.6,55v-3.7h12.1v3.5
				l-1.5,0.1c-0.9,0.1-1.3,0.5-1.3,1.3v13.5C44.8,71.9,44.8,73.4,44.7,74.4z"/>
			<path fill="#FCEB9E" d="M53.2,75.1v-20L50.6,55v-3.7h11.2v3.5l-1.5,0.1c-0.9,0.1-1.3,0.6-1.3,1.4v20.1l2.6,0.1v3.7H50.4v-3.5
				l1.5-0.1c0.5-0.1,0.8-0.2,1-0.4S53.2,75.6,53.2,75.1z"/>
			<path fill="#FCEB9E" d="M72.8,56.4L79,74h0.2l6.5-18.8L82.9,55v-3.7h10.6v3.5L92,54.9c-0.4,0-0.7,0.1-0.9,0.3
				c-0.2,0.2-0.4,0.5-0.6,1l-8.7,24h-6l-9.4-25.1L63.8,55v-3.7h11.9v3.5l-1.5,0.1c-1,0.1-1.4,0.4-1.4,1
				C72.8,56.1,72.8,56.3,72.8,56.4z"/>
			<path fill="#FCEB9E" d="M117.8,80.2h-22v-3.5l1.5-0.1c0.9-0.1,1.3-0.5,1.3-1.2V55.1L96.1,55v-3.7h21.2v7.2l-4.7,0.3V57
				c0-0.5-0.1-0.8-0.2-1c-0.2-0.2-0.5-0.3-1.1-0.3h-6.8v7.4H115v4.4h-10.7v8.1h7.5c0.6,0,0.9-0.1,1.1-0.3c0.2-0.2,0.2-0.6,0.2-1.1
				v-2.2l4.7,0.3V80.2z"/>
			<path fill="#FCEB9E" d="M28.6,99.9v-1.6l0.7-0.1c0.4,0,0.6-0.2,0.6-0.6v-9.4l-1.2-0.1v-1.7h10.4v3.4L37,89.9v-0.8
				c0-0.2,0-0.4-0.1-0.5c-0.1-0.1-0.2-0.1-0.5-0.1h-3.7v3.6h5.3v2.1h-5.3v4l1.9,0.1v1.7H28.6z"/>
			<path fill="#FCEB9E" d="M40.2,97.6l3.5-9.4l-1.4-0.1v-1.6h4.9l4.4,11.7h0l1.2,0.1v1.7h-5.6v-1.6l0.8-0.1c0.2,0,0.4-0.1,0.5-0.2
				c0.1-0.1,0.1-0.2,0-0.4l-0.5-1.3h-5l-0.6,1.8l1.3,0.1v1.7h-5v-1.6l0.7-0.1C39.9,98.2,40.1,98,40.2,97.6z M45.7,88.7l-2,5.8h4
				L45.7,88.7L45.7,88.7z"/>
			<path fill="#FCEB9E" d="M62.3,88.6c-0.2-0.3-0.7-0.4-1.8-0.4c-1.3,0-2.3,0.4-3,1.3c-0.7,0.9-1,2.1-1,3.7c0,3.3,1.3,5,4,5
				c0,0,0.2,0,0.6,0c0.3,0,0.7,0,1-0.1s0.5-0.2,0.5-0.3c0.1-0.1,0.1-0.2,0.1-0.4v-1.6l2.2,0.1v3.5c-1.1,0.6-2.5,0.8-4.3,0.8
				c-2.2,0-3.9-0.6-5-1.7c-1.2-1.2-1.7-2.9-1.7-5.2c0-1.3,0.2-2.4,0.6-3.3c0.4-0.9,0.9-1.7,1.6-2.2c1.3-1,2.8-1.5,4.6-1.5
				c1.4,0,2.8,0.3,4.1,0.8v3.4l-2.2,0.1V89C62.4,88.8,62.4,88.7,62.3,88.6z"/>
			<path fill="#FCEB9E" d="M70.8,97.6v-9.2h-1.7c-0.3,0-0.5,0.2-0.5,0.6v1l-2.2-0.1v-3.4h11.3v3.4L75.5,90v-1c0-0.2,0-0.4-0.1-0.5
				c-0.1-0.1-0.2-0.1-0.5-0.1h-1.5v9.7l1.7,0.1v1.7H69v-1.6l1.1-0.1C70.6,98.1,70.8,98,70.8,97.6z"/>
			<path fill="#FCEB9E" d="M85.7,86.2c1.7,0,3.1,0.6,4.3,1.7c1.1,1.1,1.7,2.9,1.7,5.2s-0.6,4.1-1.7,5.3c-1.1,1.2-2.7,1.8-4.6,1.8
				c-1.9,0-3.5-0.6-4.6-1.8c-1.1-1.2-1.7-2.9-1.7-5.2c0-1.2,0.2-2.3,0.6-3.3c0.4-0.9,0.9-1.7,1.5-2.2C82.5,86.7,84,86.2,85.7,86.2z
				 M81.8,93.1c0,3.3,1.2,5,3.7,5c1.3,0,2.2-0.5,2.8-1.5c0.5-0.9,0.7-2,0.7-3.3c0-1.2-0.2-2.3-0.6-3.2c-0.2-0.5-0.6-1-1.1-1.3
				s-1.1-0.5-1.9-0.5c-0.8,0-1.5,0.2-2,0.7c-0.6,0.5-1,1.1-1.2,1.8C81.9,91.4,81.8,92.2,81.8,93.1z"/>
			<path fill="#FCEB9E" d="M93.2,99.9v-1.6l0.7-0.1c0.4,0,0.6-0.2,0.6-0.6v-9.4l-1.2-0.1v-1.7h5.9c1.7,0,2.9,0.3,3.8,0.9
				c0.9,0.6,1.3,1.5,1.3,2.9c0,0.9-0.3,1.7-0.8,2.3c-0.5,0.6-1.1,1-1.8,1.3c0.5,0.2,0.9,0.6,1.2,1.2l1.6,3.2l1.2,0v1.7h-5.3v-1.6
				l0.6-0.1c0.3,0,0.5-0.2,0.5-0.4c0-0.1,0-0.2-0.1-0.3l-1-2c-0.2-0.3-0.3-0.6-0.5-0.7s-0.5-0.2-0.8-0.2h-2v3.5l1.4,0.1v1.7H93.2z
				 M97.1,92.7H99c1.8,0,2.7-0.7,2.7-2.2c0-0.9-0.2-1.4-0.7-1.7c-0.5-0.3-1.2-0.4-2.3-0.4h-1.6V92.7z"/>
			<path fill="#FCEB9E" d="M110.8,97.6v-2.9l-3.7-6.5l-1-0.1v-1.7h5.3v1.6l-0.6,0.1c-0.2,0-0.4,0.1-0.4,0.2c-0.1,0.1,0,0.3,0.1,0.5
				l1.8,3.5h0.1l2.3-4.2l-1.1-0.1v-1.7h4.6v1.6l-0.6,0.1c-0.3,0-0.5,0.2-0.7,0.6l-3.4,6v3.4l1.7,0.1v1.7H109v-1.6l1.1-0.1
				C110.5,98.2,110.8,98,110.8,97.6z"/>
		</g>
		<g>
			<path d="M43.2,72.9c-0.5,4.3-3.6,6.4-9.1,6.4c-2.9,0-5.5-0.6-7.8-1.8v-7.6l4.7-0.3V73c0,0.4,0.1,0.8,0.2,1c0.1,0.2,0.4,0.4,1,0.6
				c0.5,0.2,1.3,0.3,2.4,0.3c1.1,0,1.9-0.3,2.4-0.9c0.5-0.6,0.7-1.6,0.7-3V53.7l-3.6-0.2v-3.7h12.1v3.5l-1.5,0.1
				c-0.9,0.1-1.3,0.5-1.3,1.3v13.5C43.4,70.4,43.3,71.9,43.2,72.9z"/>
			<path d="M51.8,73.7v-20l-2.6-0.1v-3.7h11.2v3.5l-1.5,0.1c-0.9,0.1-1.3,0.6-1.3,1.4v20.1l2.6,0.1v3.7H48.9v-3.5l1.5-0.1
				c0.5-0.1,0.8-0.2,1-0.4S51.8,74.2,51.8,73.7z"/>
			<path d="M71.4,55l6.2,17.5h0.2l6.5-18.8l-2.8-0.2v-3.7h10.6v3.5l-1.5,0.1c-0.4,0-0.7,0.1-0.9,0.3c-0.2,0.2-0.4,0.5-0.6,1l-8.7,24
				h-6L65,53.6l-2.6-0.1v-3.7h11.9v3.5l-1.5,0.1c-1,0.1-1.4,0.4-1.4,1C71.3,54.7,71.3,54.8,71.4,55z"/>
			<path d="M116.4,78.7h-22v-3.5l1.5-0.1c0.9-0.1,1.3-0.5,1.3-1.2V53.6l-2.6-0.1v-3.7h21.2V57l-4.7,0.3v-1.7c0-0.5-0.1-0.8-0.2-1
				c-0.2-0.2-0.5-0.3-1.1-0.3h-6.8v7.4h10.7v4.4h-10.7v8.1h7.5c0.6,0,0.9-0.1,1.1-0.3c0.2-0.2,0.2-0.6,0.2-1.1v-2.2l4.7,0.3V78.7z"
				/>
			<path d="M27.2,98.4v-1.6l0.7-0.1c0.4,0,0.6-0.2,0.6-0.6v-9.4l-1.2-0.1V85h10.4v3.4l-2.2,0.1v-0.8c0-0.2,0-0.4-0.1-0.5
				c-0.1-0.1-0.2-0.1-0.5-0.1h-3.7v3.6h5.3v2.1h-5.3v4l1.9,0.1v1.7H27.2z"/>
			<path d="M38.8,96.2l3.5-9.4l-1.4-0.1V85h4.9l4.4,11.7h0l1.2,0.1v1.7h-5.6v-1.6l0.8-0.1c0.2,0,0.4-0.1,0.5-0.2
				c0.1-0.1,0.1-0.2,0-0.4l-0.5-1.3h-5l-0.6,1.8l1.3,0.1v1.7h-5v-1.6l0.7-0.1C38.4,96.7,38.7,96.5,38.8,96.2z M44.3,87.2l-2,5.8h4
				L44.3,87.2L44.3,87.2z"/>
			<path d="M60.9,87.1c-0.2-0.3-0.7-0.4-1.8-0.4c-1.3,0-2.3,0.4-3,1.3c-0.7,0.9-1,2.1-1,3.7c0,3.3,1.3,5,4,5c0,0,0.2,0,0.6,0
				c0.3,0,0.7,0,1-0.1s0.5-0.2,0.5-0.3c0.1-0.1,0.1-0.2,0.1-0.4v-1.6l2.2,0.1v3.5c-1.1,0.6-2.5,0.8-4.3,0.8c-2.2,0-3.9-0.6-5-1.7
				c-1.2-1.2-1.7-2.9-1.7-5.2c0-1.3,0.2-2.4,0.6-3.3c0.4-0.9,0.9-1.7,1.6-2.2c1.3-1,2.8-1.5,4.6-1.5c1.4,0,2.8,0.3,4.1,0.8V89
				L61,89.1v-1.6C61,87.4,60.9,87.2,60.9,87.1z"/>
			<path d="M69.4,96.2V87h-1.7c-0.3,0-0.5,0.2-0.5,0.6v1L65,88.4V85h11.3v3.4l-2.2,0.1v-1c0-0.2,0-0.4-0.1-0.5
				C73.9,87,73.7,87,73.4,87H72v9.7l1.7,0.1v1.7h-6.1v-1.6l1.1-0.1C69.2,96.7,69.4,96.5,69.4,96.2z"/>
			<path d="M84.2,84.7c1.7,0,3.1,0.6,4.3,1.7c1.1,1.1,1.7,2.9,1.7,5.2s-0.6,4.1-1.7,5.3c-1.1,1.2-2.7,1.8-4.6,1.8
				c-1.9,0-3.5-0.6-4.6-1.8c-1.1-1.2-1.7-2.9-1.7-5.2c0-1.2,0.2-2.3,0.6-3.3c0.4-0.9,0.9-1.7,1.5-2.2C81,85.2,82.5,84.7,84.2,84.7z
				 M80.3,91.6c0,3.3,1.2,5,3.7,5c1.3,0,2.2-0.5,2.8-1.5c0.5-0.9,0.7-2,0.7-3.3c0-1.2-0.2-2.3-0.6-3.2c-0.2-0.5-0.6-1-1.1-1.3
				s-1.1-0.5-1.9-0.5c-0.8,0-1.5,0.2-2,0.7c-0.6,0.5-1,1.1-1.2,1.8C80.4,90,80.3,90.8,80.3,91.6z"/>
			<path d="M91.7,98.4v-1.6l0.7-0.1c0.4,0,0.6-0.2,0.6-0.6v-9.4l-1.2-0.1V85h5.9c1.7,0,2.9,0.3,3.8,0.9c0.9,0.6,1.3,1.5,1.3,2.9
				c0,0.9-0.3,1.7-0.8,2.3c-0.5,0.6-1.1,1-1.8,1.3c0.5,0.2,0.9,0.6,1.2,1.2l1.6,3.2l1.2,0v1.7H99v-1.6l0.6-0.1
				c0.3,0,0.5-0.2,0.5-0.4c0-0.1,0-0.2-0.1-0.3l-1-2c-0.2-0.3-0.3-0.6-0.5-0.7s-0.5-0.2-0.8-0.2h-2v3.5l1.4,0.1v1.7H91.7z
				 M95.7,91.2h1.9c1.8,0,2.7-0.7,2.7-2.2c0-0.9-0.2-1.4-0.7-1.7c-0.5-0.3-1.2-0.4-2.3-0.4h-1.6V91.2z"/>
			<path d="M109.3,96.2v-2.9l-3.7-6.5l-1-0.1V85h5.3v1.6l-0.6,0.1c-0.2,0-0.4,0.1-0.4,0.2c-0.1,0.1,0,0.3,0.1,0.5l1.8,3.5h0.1
				l2.3-4.2l-1.1-0.1V85h4.6v1.6l-0.6,0.1c-0.3,0-0.5,0.2-0.7,0.6l-3.4,6v3.4l1.7,0.1v1.7h-6.1v-1.6l1.1-0.1
				C109.1,96.7,109.3,96.5,109.3,96.2z"/>
		</g>
		<g>
			<path fill="none" stroke="#000000" stroke-width="0.9615" stroke-miterlimit="10" d="M43.2,72.9c-0.5,4.3-3.6,6.4-9.1,6.4
				c-2.9,0-5.5-0.6-7.8-1.8v-7.6l4.7-0.3V73c0,0.4,0.1,0.8,0.2,1c0.1,0.2,0.4,0.4,1,0.6c0.5,0.2,1.3,0.3,2.4,0.3
				c1.1,0,1.9-0.3,2.4-0.9c0.5-0.6,0.7-1.6,0.7-3V53.7l-3.6-0.2v-3.7h12.1v3.5l-1.5,0.1c-0.9,0.1-1.3,0.5-1.3,1.3v13.5
				C43.4,70.4,43.3,71.9,43.2,72.9z"/>
			<path fill="none" stroke="#000000" stroke-width="0.9615" stroke-miterlimit="10" d="M51.8,73.7v-20l-2.6-0.1v-3.7h11.2v3.5
				l-1.5,0.1c-0.9,0.1-1.3,0.6-1.3,1.4v20.1l2.6,0.1v3.7H48.9v-3.5l1.5-0.1c0.5-0.1,0.8-0.2,1-0.4S51.8,74.2,51.8,73.7z"/>
			<path fill="none" stroke="#000000" stroke-width="0.9615" stroke-miterlimit="10" d="M71.4,55l6.2,17.5h0.2l6.5-18.8l-2.8-0.2
				v-3.7h10.6v3.5l-1.5,0.1c-0.4,0-0.7,0.1-0.9,0.3c-0.2,0.2-0.4,0.5-0.6,1l-8.7,24h-6L65,53.6l-2.6-0.1v-3.7h11.9v3.5l-1.5,0.1
				c-1,0.1-1.4,0.4-1.4,1C71.3,54.7,71.3,54.8,71.4,55z"/>
			<path fill="none" stroke="#000000" stroke-width="0.9615" stroke-miterlimit="10" d="M116.4,78.7h-22v-3.5l1.5-0.1
				c0.9-0.1,1.3-0.5,1.3-1.2V53.6l-2.6-0.1v-3.7h21.2V57l-4.7,0.3v-1.7c0-0.5-0.1-0.8-0.2-1c-0.2-0.2-0.5-0.3-1.1-0.3h-6.8v7.4h10.7
				v4.4h-10.7v8.1h7.5c0.6,0,0.9-0.1,1.1-0.3c0.2-0.2,0.2-0.6,0.2-1.1v-2.2l4.7,0.3V78.7z"/>
			<path fill="none" stroke="#000000" stroke-width="0.9615" stroke-miterlimit="10" d="M27.2,98.4v-1.6l0.7-0.1
				c0.4,0,0.6-0.2,0.6-0.6v-9.4l-1.2-0.1V85h10.4v3.4l-2.2,0.1v-0.8c0-0.2,0-0.4-0.1-0.5c-0.1-0.1-0.2-0.1-0.5-0.1h-3.7v3.6h5.3v2.1
				h-5.3v4l1.9,0.1v1.7H27.2z"/>
			<path fill="none" stroke="#000000" stroke-width="0.9615" stroke-miterlimit="10" d="M38.8,96.2l3.5-9.4l-1.4-0.1V85h4.9
				l4.4,11.7h0l1.2,0.1v1.7h-5.6v-1.6l0.8-0.1c0.2,0,0.4-0.1,0.5-0.2c0.1-0.1,0.1-0.2,0-0.4l-0.5-1.3h-5l-0.6,1.8l1.3,0.1v1.7h-5
				v-1.6l0.7-0.1C38.4,96.7,38.7,96.5,38.8,96.2z M44.3,87.2l-2,5.8h4L44.3,87.2L44.3,87.2z"/>
			<path fill="none" stroke="#000000" stroke-width="0.9615" stroke-miterlimit="10" d="M60.9,87.1c-0.2-0.3-0.7-0.4-1.8-0.4
				c-1.3,0-2.3,0.4-3,1.3c-0.7,0.9-1,2.1-1,3.7c0,3.3,1.3,5,4,5c0,0,0.2,0,0.6,0c0.3,0,0.7,0,1-0.1s0.5-0.2,0.5-0.3
				c0.1-0.1,0.1-0.2,0.1-0.4v-1.6l2.2,0.1v3.5c-1.1,0.6-2.5,0.8-4.3,0.8c-2.2,0-3.9-0.6-5-1.7c-1.2-1.2-1.7-2.9-1.7-5.2
				c0-1.3,0.2-2.4,0.6-3.3c0.4-0.9,0.9-1.7,1.6-2.2c1.3-1,2.8-1.5,4.6-1.5c1.4,0,2.8,0.3,4.1,0.8V89L61,89.1v-1.6
				C61,87.4,60.9,87.2,60.9,87.1z"/>
			<path fill="none" stroke="#000000" stroke-width="0.9615" stroke-miterlimit="10" d="M69.4,96.2V87h-1.7c-0.3,0-0.5,0.2-0.5,0.6
				v1L65,88.4V85h11.3v3.4l-2.2,0.1v-1c0-0.2,0-0.4-0.1-0.5C73.9,87,73.7,87,73.4,87H72v9.7l1.7,0.1v1.7h-6.1v-1.6l1.1-0.1
				C69.2,96.7,69.4,96.5,69.4,96.2z"/>
			<path fill="none" stroke="#000000" stroke-width="0.9615" stroke-miterlimit="10" d="M84.2,84.7c1.7,0,3.1,0.6,4.3,1.7
				c1.1,1.1,1.7,2.9,1.7,5.2s-0.6,4.1-1.7,5.3c-1.1,1.2-2.7,1.8-4.6,1.8c-1.9,0-3.5-0.6-4.6-1.8c-1.1-1.2-1.7-2.9-1.7-5.2
				c0-1.2,0.2-2.3,0.6-3.3c0.4-0.9,0.9-1.7,1.5-2.2C81,85.2,82.5,84.7,84.2,84.7z M80.3,91.6c0,3.3,1.2,5,3.7,5
				c1.3,0,2.2-0.5,2.8-1.5c0.5-0.9,0.7-2,0.7-3.3c0-1.2-0.2-2.3-0.6-3.2c-0.2-0.5-0.6-1-1.1-1.3s-1.1-0.5-1.9-0.5
				c-0.8,0-1.5,0.2-2,0.7c-0.6,0.5-1,1.1-1.2,1.8C80.4,90,80.3,90.8,80.3,91.6z"/>
			<path fill="none" stroke="#000000" stroke-width="0.9615" stroke-miterlimit="10" d="M91.7,98.4v-1.6l0.7-0.1
				c0.4,0,0.6-0.2,0.6-0.6v-9.4l-1.2-0.1V85h5.9c1.7,0,2.9,0.3,3.8,0.9c0.9,0.6,1.3,1.5,1.3,2.9c0,0.9-0.3,1.7-0.8,2.3
				c-0.5,0.6-1.1,1-1.8,1.3c0.5,0.2,0.9,0.6,1.2,1.2l1.6,3.2l1.2,0v1.7H99v-1.6l0.6-0.1c0.3,0,0.5-0.2,0.5-0.4c0-0.1,0-0.2-0.1-0.3
				l-1-2c-0.2-0.3-0.3-0.6-0.5-0.7s-0.5-0.2-0.8-0.2h-2v3.5l1.4,0.1v1.7H91.7z M95.7,91.2h1.9c1.8,0,2.7-0.7,2.7-2.2
				c0-0.9-0.2-1.4-0.7-1.7c-0.5-0.3-1.2-0.4-2.3-0.4h-1.6V91.2z"/>
			<path fill="none" stroke="#000000" stroke-width="0.9615" stroke-miterlimit="10" d="M109.3,96.2v-2.9l-3.7-6.5l-1-0.1V85h5.3
				v1.6l-0.6,0.1c-0.2,0-0.4,0.1-0.4,0.2c-0.1,0.1,0,0.3,0.1,0.5l1.8,3.5h0.1l2.3-4.2l-1.1-0.1V85h4.6v1.6l-0.6,0.1
				c-0.3,0-0.5,0.2-0.7,0.6l-3.4,6v3.4l1.7,0.1v1.7h-6.1v-1.6l1.1-0.1C109.1,96.7,109.3,96.5,109.3,96.2z"/>
		</g>
	</g>
	<g>
		<path d="M64.8,39v-5.9h-1.1c-0.2,0-0.3,0.1-0.3,0.4v0.6L62,34v-2.2h7.2V34l-1.4,0.1v-0.6c0-0.1,0-0.3-0.1-0.3
			c0-0.1-0.2-0.1-0.3-0.1h-0.9v6.2l1.1,0v1.1h-3.9v-1.1l0.7,0C64.6,39.4,64.8,39.2,64.8,39z"/>
		<path d="M70.7,39v-6.3c0-0.1,0-0.2-0.1-0.3c-0.1-0.1-0.1-0.1-0.3-0.1l-0.5,0v-1.1h2.5v3.5c0.5-0.6,1.2-1,2-1
			c0.7,0,1.2,0.2,1.6,0.6c0.4,0.4,0.6,0.9,0.6,1.7v3.4l0.8,0v1h-3.3v-1l0.5,0c0.1,0,0.2-0.1,0.3-0.1c0.1-0.1,0.1-0.2,0.1-0.3v-2.7
			c0-0.5-0.1-0.8-0.2-1c-0.2-0.2-0.4-0.4-0.9-0.4s-0.8,0.1-1.1,0.4c-0.3,0.3-0.4,0.6-0.4,0.9v3.1l0.8,0v1h-3.3v-1l0.5,0
			c0.1,0,0.2-0.1,0.3-0.1S70.7,39.2,70.7,39z"/>
		<path d="M81.6,33.7c0.7,0,1.2,0.2,1.6,0.5c0.4,0.3,0.6,0.8,0.6,1.3c0,0.4-0.1,0.7-0.3,1s-0.4,0.5-0.7,0.7
			c-0.3,0.2-0.6,0.3-0.9,0.4c-0.6,0.2-1.3,0.3-2.1,0.3c0,0.5,0.2,0.8,0.5,1.1c0.3,0.3,0.7,0.4,1.3,0.4c0.6,0,1.1-0.2,1.7-0.6
			l0.5,1.1c-0.2,0.2-0.5,0.3-0.9,0.5c-0.4,0.2-0.9,0.2-1.5,0.2c-1.1,0-2-0.3-2.5-0.9c-0.5-0.6-0.8-1.4-0.8-2.4s0.3-1.9,0.9-2.6
			C79.7,34.1,80.6,33.7,81.6,33.7z M81,36.7c0.3-0.1,0.6-0.2,0.9-0.4c0.3-0.2,0.4-0.4,0.4-0.7c0-0.5-0.3-0.8-0.8-0.8
			c-0.5,0-0.9,0.2-1.2,0.6c-0.3,0.4-0.4,0.8-0.5,1.4C80.3,36.8,80.7,36.8,81,36.7z"/>
	</g>
</g>
</svg>
