<?xml version="1.0" encoding="utf-8"?>
<!-- Generator: Adobe Illustrator 18.1.1, SVG Export Plug-In . SVG Version: 6.00 Build 0)  -->
<!DOCTYPE svg PUBLIC "-//W3C//DTD SVG 1.1//EN" "http://www.w3.org/Graphics/SVG/1.1/DTD/svg11.dtd">
<svg version="1.1" id="new_art" xmlns="http://www.w3.org/2000/svg" xmlns:xlink="http://www.w3.org/1999/xlink" x="0px" y="0px"
	 viewBox="0 0 43 180" width="43" height="180" enable-background="new 0 0 43 180" xml:space="preserve">
<g id="camera">
	<g>
		<path fill="#FFFFFF" d="M36.7,146.1h-2.4c0,0,0.1-4.2-2.6-4.2H17.9c-2.7,0-2.6,4.2-2.6,4.2H10v-2c0-0.6-0.4-1.1-0.8-1.1H7.6
			c-0.4,0-0.8,0.5-0.8,1.1v2H5.5c-1.9,0-2.9,0.9-2.9,2.8v18.2c0,1.9,1,2.8,2.9,2.8h31.2c1.9,0,2.9-0.9,2.9-2.8V149
			C39.6,147.1,38.6,146.1,36.7,146.1z M10.5,154.4H6.3v-3.1h4.2V154.4z M24.2,166.9c-6.1,0-10.8-4.8-10.6-10.6
			c0.3-5.7,5.2-10.1,11.1-10.1c5.8,0,10.6,4.5,10.6,10.1C35.3,162.1,30.4,166.9,24.2,166.9z M24.7,149.6c-3.8,0-7,2.9-7.2,6.6
			c-0.1,3.7,2.9,6.8,6.8,6.8s7.1-3.1,7.2-6.8C31.5,152.6,28.5,149.6,24.7,149.6z"/>
	</g>
</g>
<g id="compass">
	<path fill-rule="evenodd" clip-rule="evenodd" fill="#FFFFFF" d="M33.6,112l-8.6-1.6l1.7-2.5c0.1-0.2,0.1-0.5-0.1-0.6
		c-0.2-0.2-0.4-0.2-0.6-0.1l-2.5,1.7l-1.6-8.6c0-0.2-0.2-0.4-0.5-0.4s-0.4,0.2-0.5,0.4l-1.6,8.6l-2.5-1.7c-0.2-0.1-0.5-0.1-0.6,0.1
		c-0.2,0.2-0.2,0.4-0.1,0.6l1.7,2.5L9.4,112c-0.2,0-0.4,0.2-0.4,0.5s0.2,0.4,0.4,0.5l8.6,1.6l-1.7,2.5c-0.1,0.2-0.1,0.5,0.1,0.6
		c0.2,0.2,0.4,0.2,0.6,0.1l2.5-1.7l1.6,8.6c0,0.2,0.2,0.4,0.5,0.4s0.4-0.2,0.5-0.4l1.6-8.6l2.5,1.7c0.1,0.1,0.2,0.1,0.3,0.1
		c0.1,0,0.3,0,0.4-0.1c0.2-0.2,0.2-0.4,0.1-0.6l-1.7-2.5l8.6-1.6c0.2,0,0.4-0.2,0.4-0.5S33.8,112.1,33.6,112z M18.6,113.6
		L18.6,113.6L18.6,113.6L18.6,113.6z M22.9,114.3L22.9,114.3l-1.1-0.7c-0.1-0.1-0.2-0.1-0.3-0.1s-0.2,0-0.3,0.1l-1.1,0.7l0,0
		c0-0.2-0.2-0.4-0.4-0.4l0,0l0.7-1.1c0.1-0.2,0.1-0.4,0-0.6l-0.7-1.1l0,0c0.2,0,0.4-0.2,0.4-0.4l0,0l1.1,0.7c0.2,0.1,0.4,0.1,0.6,0
		l1-0.7h0l0,0c0,0.2,0.2,0.4,0.4,0.4l0,0l-0.7,1.1c-0.1,0.2-0.1,0.4,0,0.6l0.7,1v0l0,0C23.1,113.9,22.9,114.1,22.9,114.3z"/>
	<path fill="#FFFFFF" d="M39.3,113.9l3.7-2.4l-3.9-2.4v0.5c-1.3-7.7-7.5-13.7-15.2-14.7L21.5,91l-2.4,3.8
		c-7.9,1.1-14.2,7.4-15.3,15.3L0,112.5l3.8,2.4c1.1,7.9,7.4,14.2,15.3,15.3l2.4,3.8l2.4-3.8C32.2,129.1,38.7,122.3,39.3,113.9z
		 M21.5,128.4c-8.8,0-15.9-7.1-15.9-15.9s7.1-15.9,15.9-15.9s15.9,7.1,15.9,15.9S30.3,128.4,21.5,128.4z"/>
</g>
<g id="utensils">
	<path fill="#FFFFFF" d="M24.6,63.7c-0.2-2.8,0.1-6.3-0.2-9.1c-0.1-0.6-0.9-3.4-1.5-4.4c-1.4-2.6-2-2.1-3-1.8
		c-1.4,0.4-0.9,9.2-0.9,16.1c0,3,1.1,3.8,1.1,5.2c0,11.8-2.4,11.6-1,15.8c0.7,2,3.5,1.7,4,0c1.4-4.3-0.6-3.8-1-15.6
		C22,68.3,24.9,67.5,24.6,63.7z"/>
	<path fill="#FFFFFF" d="M13.2,64.4c0.1-0.4,0.6-1.6,0.5-2.9c-0.3-3.6-0.5-9.2-1.2-9.2c-0.4,0,0.1,9.2-1,9.3c-0.8,0-0.3-9.2-1.2-9.2
		c-0.9,0-0.2,9.9-1.2,9.9c-0.9,0-0.2-9.9-1.2-9.9c-1.1,0-0.5,9.2-1.2,9.2c-0.8,0-0.5-9-0.8-9c-0.5,0-1.5,6.1-1.4,9.7
		c0,1.1,0.3,1.7,0.4,2.1c0.4,2,3.3,2.3,3.3,4.3c0,12.3-2.5,11.5-1.1,16.6c0.6,2.1,3.6,1.8,4.2,0c1.5-4.6-1-4.6-1-16.7
		C10.1,67.1,12.8,66.7,13.2,64.4z"/>
	<path fill="#FFFFFF" d="M39.2,63.3c0-5.8-2.7-9.6-5.4-9.6c-2.4,0-5.1,4.2-5.1,9.6c0,4.3,4.1,4.6,4.2,5.7c0.2,12.1-2.4,12.3-1,16.5
		c0.7,2,3.5,1.7,4.2,0c1.7-4-1.2-4.9-1.2-16.5C34.9,67.7,39.2,67.9,39.2,63.3z"/>
</g>
<path id="note" fill-rule="evenodd" clip-rule="evenodd" fill="#FFFFFF" d="M38.9,19.6c0-2.2-5.7-7.9-7.1-10c-1-1.5-0.7-3.5-0.6-5.2
	l0.6-1.6l-0.6-0.2c0,0,0,0,0-0.1c0,0,0,0,0,0.1l-1.9-0.7L18.5,31.3c-1.3-1.6-3.5-2.6-6-2.6c-4,0-7.3,2.6-7.3,5.9s3.3,5.9,7.3,5.9
	c3,0,5.6-1.5,6.7-3.7l0.2,0.1l5.4-14.8c0.9,3.1,4.4,5.7,5.5,6.9c1.3,1.5,1.1,5.6,0.2,9.5c2.5-1.5,4.7-5.6,4.8-9
	c0-0.4-0.2-0.9-0.5-1.5C37,26.4,38.8,22.7,38.9,19.6z M34.4,27.4c-1.7-2.6-5.2-6.2-6.2-7.8c-1-1.5-0.7-3.4-0.6-5.2l0.8-2.3
	c0.9,3.1,4.4,5.7,5.5,6.9C35.1,20.4,35,23.9,34.4,27.4z"/>
</svg>
