<?xml version="1.0" encoding="utf-8"?>
<!-- Generator: Adobe Illustrator 18.1.1, SVG Export Plug-In . SVG Version: 6.00 Build 0)  -->
<!DOCTYPE svg PUBLIC "-//W3C//DTD SVG 1.1//EN" "http://www.w3.org/Graphics/SVG/1.1/DTD/svg11.dtd">
<svg version="1.1" id="icons" xmlns="http://www.w3.org/2000/svg" xmlns:xlink="http://www.w3.org/1999/xlink" x="0px" y="0px"
	 viewBox="0 0 105 35" width="105" height="35" enable-background="new 0 0 105 35" xml:space="preserve">
<path id="rss" fill="#E39401" d="M87.5,0C77.8,0,70,7.8,70,17.5C70,27.2,77.8,35,87.5,35S105,27.2,105,17.5C105,7.8,97.2,0,87.5,0z
	 M82.2,26.2c-1.3,0-2.3-1-2.3-2.3c0-1.3,1-2.3,2.3-2.3c1.3,0,2.3,1,2.3,2.3C84.5,25.2,83.5,26.2,82.2,26.2z M88,26.2
	c0-2.2-0.8-4.3-2.4-5.8c-1.5-1.5-3.6-2.4-5.8-2.4v-3.4c6.3,0,11.5,5.2,11.5,11.5H88z M94,26.2c0-7.8-6.3-14.1-14.1-14.1V8.8
	c9.6,0,17.4,7.9,17.4,17.5H94z"/>
<path id="twitter" fill="#E39401" d="M52.5,0C42.8,0,35,7.8,35,17.5C35,27.2,42.8,35,52.5,35C62.2,35,70,27.2,70,17.5
	C70,7.8,62.2,0,52.5,0z M59.8,14.4c0,0.2,0,0.3,0,0.5c0,4.7-3.6,10.2-10.2,10.2c-2,0-3.9-0.6-5.5-1.6c0.3,0,0.6,0,0.9,0
	c1.7,0,3.2-0.6,4.5-1.5c-1.6,0-2.9-1.1-3.4-2.5c0.2,0,0.4,0.1,0.7,0.1c0.3,0,0.6,0,0.9-0.1c-1.6-0.3-2.9-1.8-2.9-3.5c0,0,0,0,0,0
	c0.5,0.3,1,0.4,1.6,0.4c-1-0.6-1.6-1.7-1.6-3c0-0.7,0.2-1.3,0.5-1.8c1.8,2.2,4.4,3.6,7.4,3.8c-0.1-0.3-0.1-0.5-0.1-0.8
	c0-2,1.6-3.6,3.6-3.6c1,0,2,0.4,2.6,1.1c0.8-0.2,1.6-0.5,2.3-0.9c-0.3,0.8-0.8,1.5-1.6,2c0.7-0.1,1.4-0.3,2.1-0.6
	C61.1,13.3,60.5,13.9,59.8,14.4z"/>
<path id="facebook" fill="#E39401" d="M17.5,0C7.8,0,0,7.8,0,17.5C0,27.2,7.8,35,17.5,35C27.2,35,35,27.2,35,17.5
	C35,7.8,27.2,0,17.5,0z M20.9,17.5h-2.5c0,4,0,9,0,9h-3.7c0,0,0-4.9,0-9h-1.8v-3.2h1.8v-2c0-1.5,0.7-3.8,3.8-3.8l2.8,0v3.1
	c0,0-1.7,0-2,0c-0.3,0-0.8,0.2-0.8,0.9v1.9h2.8L20.9,17.5z"/>
</svg>
